<?xml version="1.0" standalone="no"?>
<!DOCTYPE svg PUBLIC "-//W3C//DTD SVG 20010904//EN"
 "http://www.w3.org/TR/2001/REC-SVG-20010904/DTD/svg10.dtd">
<svg version="1.0" xmlns="http://www.w3.org/2000/svg"
 width="500.000000pt" height="500.000000pt" viewBox="0 0 500.000000 500.000000"
 preserveAspectRatio="xMidYMid meet">

<g transform="translate(0.000000,500.000000) scale(0.100000,-0.100000)"
fill="#000000" stroke="none">
<path d="M1108 3688 l-608 -351 0 -844 0 -843 480 0 c313 0 480 3 480 10 0 6
-95 10 -265 10 l-265 0 0 759 0 759 553 317 c303 175 555 320 558 321 4 2 204
-110 445 -249 l439 -253 3 -262 c1 -163 6 -262 12 -262 6 0 10 99 10 268 l0
269 -606 349 c-333 192 -611 350 -618 351 -6 1 -284 -156 -618 -349z"/>
<path d="M1618 2724 c-5 -4 -8 -86 -8 -182 l0 -174 93 4 c64 2 104 9 131 22
68 34 99 113 77 196 -15 55 -43 87 -98 111 -44 20 -183 37 -195 23z m162 -35
c50 -28 80 -83 80 -145 0 -96 -57 -154 -153 -154 l-48 0 3 152 3 153 30 6 c17
4 34 7 39 8 4 0 25 -9 46 -20z"/>
<path d="M2068 2724 c-5 -4 -8 -85 -8 -181 l0 -173 30 0 30 0 0 85 c0 76 2 85
19 85 12 0 40 -31 81 -90 57 -82 65 -89 89 -83 14 3 27 6 28 7 1 1 -27 37 -63
80 -66 82 -74 96 -50 96 8 0 28 12 45 26 50 42 41 102 -20 134 -24 13 -172 25
-181 14z m166 -56 c21 -30 20 -50 -5 -82 -17 -21 -29 -26 -65 -26 l-44 0 0 69
0 70 33 3 c39 4 61 -5 81 -34z"/>
<path d="M2522 2568 c-90 -208 -87 -198 -71 -198 8 0 24 23 36 50 l22 50 76 0
77 0 21 -50 c18 -44 25 -50 50 -50 16 0 27 4 25 8 -37 94 -155 352 -159 352
-3 0 -38 -73 -77 -162z m122 -55 c7 -22 5 -23 -58 -23 -36 0 -66 4 -66 9 0 8
13 41 46 119 l16 37 28 -60 c15 -33 31 -70 34 -82z"/>
<path d="M2897 2724 c-4 -4 -7 -85 -7 -181 l0 -173 30 0 30 0 0 83 1 82 32
-35 c17 -20 52 -59 77 -88 40 -45 48 -51 73 -45 29 6 28 6 -65 100 l-93 94 83
77 c45 42 82 80 82 85 -1 24 -37 -3 -106 -80 l-79 -87 -5 85 c-4 75 -7 84 -25
87 -12 2 -24 0 -28 -4z"/>
<path d="M1655 2050 c-28 -11 -44 -31 -51 -67 -7 -36 29 -84 85 -113 55 -28
81 -57 81 -90 0 -57 -53 -81 -125 -57 -36 11 -45 12 -45 1 0 -20 101 -37 148
-25 46 13 70 36 78 79 9 44 -13 74 -95 126 -67 43 -81 60 -81 96 0 37 27 45
91 29 48 -13 59 -13 63 -2 11 27 -98 44 -149 23z"/>
<path d="M1940 2041 c0 -18 5 -19 55 -14 l55 6 0 -167 0 -166 25 0 25 0 0 166
0 167 55 -6 c50 -5 55 -4 55 14 0 18 -8 19 -135 19 -127 0 -135 -1 -135 -19z"/>
<path d="M2310 2053 c0 -5 27 -57 60 -117 55 -101 60 -114 60 -173 0 -61 1
-63 25 -63 24 0 25 2 25 69 0 61 5 79 50 174 54 115 55 117 40 117 -6 0 -32
-46 -59 -102 l-48 -103 -51 103 c-45 88 -56 102 -77 102 -14 0 -25 -3 -25 -7z"/>
<path d="M2720 1881 l0 -181 94 0 c75 0 95 3 100 15 5 14 -5 16 -67 13 l-72
-3 -5 165 c-5 162 -5 165 -27 168 l-23 3 0 -180z"/>
<path d="M3050 1880 l0 -180 105 0 c91 0 105 2 105 16 0 15 -10 16 -80 10
l-80 -6 0 80 0 80 60 0 c33 0 60 4 60 10 0 6 -27 10 -60 10 l-60 0 0 65 c0 70
-2 67 60 67 3 0 26 -3 53 -6 43 -7 47 -5 47 13 0 20 -6 21 -105 21 l-105 0 0
-180z"/>
<path d="M3465 2049 c-33 -19 -45 -41 -45 -79 0 -42 17 -61 98 -110 61 -37 79
-69 60 -108 -18 -38 -65 -48 -122 -29 -39 14 -46 14 -46 1 0 -8 2 -14 4 -14 2
0 27 -5 56 -10 95 -18 170 22 170 91 0 34 -41 84 -90 109 -39 20 -90 73 -90
94 0 7 6 21 14 32 14 18 17 18 76 3 52 -14 63 -14 67 -2 3 8 3 16 0 20 -12 11
-132 13 -152 2z"/>
<path d="M520 1331 c0 -34 4 -61 10 -61 6 0 10 9 10 20 0 12 7 20 18 20 9 0
23 -9 30 -20 7 -11 17 -20 23 -20 8 0 7 5 -1 15 -11 13 -10 20 1 41 19 37 2
58 -50 62 l-41 3 0 -60z m64 43 c21 -8 21 -40 0 -48 -33 -13 -44 -6 -44 24 0
30 11 37 44 24z"/>
<path d="M770 1330 l0 -60 45 0 c25 0 45 5 45 10 0 6 -16 10 -36 10 -28 0 -35
3 -32 17 2 10 16 21 33 24 l30 7 -32 1 c-26 1 -33 5 -33 20 0 15 8 21 38 24
34 3 33 4 -10 5 l-48 2 0 -60z"/>
<path d="M1027 1333 c-23 -54 -27 -89 -6 -50 13 22 74 24 83 2 3 -8 10 -15 15
-15 5 0 -2 27 -16 60 -15 33 -32 60 -38 60 -7 0 -24 -26 -38 -57z m57 -15 c-5
-8 -44 -11 -44 -3 0 2 5 16 12 30 l12 26 12 -23 c7 -12 10 -26 8 -30z"/>
<path d="M1270 1330 l0 -60 46 0 c27 0 43 4 39 10 -3 6 -19 10 -36 10 -28 0
-29 1 -29 50 0 28 -4 50 -10 50 -6 0 -10 -27 -10 -60z"/>
<path d="M1680 1330 l0 -60 46 0 c27 0 43 4 39 10 -3 6 -19 10 -36 10 -22 0
-29 5 -29 19 0 15 8 21 33 24 l32 4 -32 1 c-25 2 -33 7 -33 21 0 15 8 21 38
24 34 3 33 4 -10 5 l-48 2 0 -60z"/>
<path d="M1927 1383 c-18 -17 -5 -45 28 -59 54 -22 40 -47 -21 -37 -22 3 -26
2 -14 -6 21 -15 65 -14 79 3 17 21 3 44 -35 56 -42 14 -39 35 4 35 18 0 32 3
32 7 0 10 -64 11 -73 1z"/>
<path d="M2158 1383 c20 -4 22 -10 22 -59 0 -30 5 -54 10 -54 6 0 10 24 10 54
0 49 2 55 23 59 12 2 -3 4 -33 4 -30 0 -45 -2 -32 -4z"/>
<path d="M2398 1330 c-15 -33 -22 -60 -17 -60 5 0 12 7 15 15 9 22 70 20 83
-2 5 -10 12 -15 15 -13 8 9 -46 120 -58 120 -6 -1 -23 -28 -38 -60z m57 3 c5
-18 2 -23 -13 -23 -27 0 -32 9 -20 36 12 26 22 22 33 -13z"/>
<path d="M2648 1383 c20 -4 22 -10 22 -59 0 -30 5 -54 10 -54 6 0 10 24 10 54
0 49 2 55 23 59 12 2 -3 4 -33 4 -30 0 -45 -2 -32 -4z"/>
<path d="M2880 1330 l0 -60 46 0 c27 0 43 4 39 10 -3 6 -22 10 -41 10 -49 0
-44 32 6 41 l35 6 -37 2 c-30 1 -38 5 -38 20 0 15 8 21 38 24 l37 4 -42 1 -43
2 0 -60z"/>
<path d="M3304 1335 c-27 -63 -28 -65 -14 -65 6 0 10 7 10 15 0 22 66 20 79
-2 5 -10 12 -15 15 -12 9 9 -42 119 -54 119 -6 0 -22 -25 -36 -55z m56 -12 c0
-7 -9 -13 -20 -13 -22 0 -23 3 -13 39 6 23 7 23 20 6 7 -11 13 -25 13 -32z"/>
<path d="M3556 1368 c-22 -30 -20 -54 5 -79 14 -14 30 -19 52 -17 28 3 32 7
34 33 1 18 -1 21 -3 9 -10 -47 -84 -28 -84 21 0 30 32 49 67 40 16 -4 22 -2
18 5 -12 20 -73 11 -89 -12z"/>
<path d="M3810 1330 l0 -60 45 0 c25 0 45 5 45 10 0 6 -16 10 -36 10 -28 0
-35 3 -32 17 2 10 16 21 33 24 l30 7 -32 1 c-26 1 -33 5 -33 20 0 15 8 21 38
24 34 3 33 4 -10 5 l-48 2 0 -60z"/>
<path d="M4060 1330 c0 -33 4 -60 10 -60 6 0 10 19 10 43 l0 42 40 -45 39 -45
-1 65 c-1 60 -1 61 -7 20 l-6 -45 -34 43 c-19 23 -38 42 -43 42 -4 0 -8 -27
-8 -60z"/>
<path d="M4336 1374 c-22 -21 -20 -67 3 -88 22 -20 72 -18 79 2 3 11 0 12 -17
3 -44 -24 -83 24 -55 66 13 21 21 24 51 18 24 -4 33 -3 28 4 -10 17 -72 13
-89 -5z"/>
<path d="M4570 1385 c0 -2 9 -19 20 -37 11 -18 20 -43 20 -55 0 -13 5 -23 10
-23 6 0 10 10 10 23 0 12 9 37 20 55 22 36 24 42 12 42 -5 0 -14 -11 -20 -25
-6 -14 -16 -25 -22 -25 -6 0 -16 11 -22 25 -10 21 -28 35 -28 20z"/>
</g>
</svg>
